<!-- BookFlix Official Logo SVG -->
<svg xmlns="http://www.w3.org/2000/svg" viewBox="0 0 400 400">
  <!-- Book Base -->
  <path d="M50 100 L250 100 L250 300 L50 300 Z" fill="#4A90E2" stroke="#2E5A87" stroke-width="3"/>
  
  <!-- Book Pages -->
  <path d="M60 110 L240 110 L240 290 L60 290 Z" fill="#E8F4FD" stroke="#4A90E2" stroke-width="1"/>
  <line x1="70" y1="130" x2="230" y2="130" stroke="#4A90E2" stroke-width="1"/>
  <line x1="70" y1="150" x2="230" y2="150" stroke="#4A90E2" stroke-width="1"/>
  <line x1="70" y1="170" x2="230" y2="170" stroke="#4A90E2" stroke-width="1"/>
  
  <!-- Monitor/Screen -->
  <rect x="120" y="180" width="80" height="60" fill="#2C3E50" stroke="#34495E" stroke-width="2" rx="4"/>
  <rect x="125" y="185" width="70" height="50" fill="#3498DB"/>
  <rect x="140" y="245" width="40" height="8" fill="#7F8C8D" rx="4"/>
  
  <!-- Film Clapper -->
  <path d="M180 80 L350 80 L350 140 L200 180 L180 140 Z" fill="#2C3E50" stroke="#34495E" stroke-width="3"/>
  
  <!-- Clapper Bars -->
  <rect x="190" y="85" width="140" height="12" fill="white"/>
  <rect x="190" y="102" width="140" height="12" fill="white"/>
  <rect x="190" y="119" width="140" height="12" fill="white"/>
  
  <!-- Clapper Stripes -->
  <rect x="200" y="85" width="15" height="12" fill="black"/>
  <rect x="230" y="85" width="15" height="12" fill="black"/>
  <rect x="260" y="85" width="15" height="12" fill="black"/>
  <rect x="290" y="85" width="15" height="12" fill="black"/>
  <rect x="320" y="85" width="15" height="12" fill="black"/>
  
  <rect x="215" y="102" width="15" height="12" fill="black"/>
  <rect x="245" y="102" width="15" height="12" fill="black"/>
  <rect x="275" y="102" width="15" height="12" fill="black"/>
  <rect x="305" y="102" width="15" height="12" fill="black"/>
  
  <rect x="200" y="119" width="15" height="12" fill="black"/>
  <rect x="230" y="119" width="15" height="12" fill="black"/>
  <rect x="260" y="119" width="15" height="12" fill="black"/>
  <rect x="290" y="119" width="15" height="12" fill="black"/>
  <rect x="320" y="119" width="15" height="12" fill="black"/>
</svg>